<svg xmlns="http://www.w3.org/2000/svg" viewBox="0 0 980 300" width="980" height="300">
<defs></defs>

<g transform="translate(40,65) scale(0.22727272727272727)"><path fill="#1a3d2e" fill-rule="evenodd" d="M431.5 43L471 42.5L472 43.5L481 43.5L482 44.5L497 45.5L502 47.5L507 47.5L508 48.5L511 48.5L516 50.5L520 50.5L524 52.5L527 52.5L528 53.5L545 58.5L548 60.5L555 62.5L572 70.5L574 72.5L579 74.5L581 76.5L584 77.5L593 83.5L601 90.5L602 90.5L622.5 111L635.5 130L637.5 134L637.5 136L640.5 141L640.5 143L642.5 146L642.5 149L644.5 152L645.5 160L646.5 161L646.5 165L647.5 166L647.5 174L648.5 175L647.5 176L648.5 177L647.5 192L649.5 196L660.5 206L660.5 207L670.5 219L676.5 228L677.5 231L679.5 233L682.5 240L684.5 242L685.5 246L688.5 251L688.5 253L691.5 258L691.5 260L693.5 263L693.5 265L699.5 281L699.5 284L700.5 285L700.5 288L702.5 293L703.5 303L704.5 304L704.5 311L705.5 312L705.5 320L706.5 321L706.5 362L705.5 363L705.5 371L704.5 372L703.5 384L702.5 385L702.5 389L701.5 390L699.5 401L697.5 405L697.5 408L696.5 409L695.5 414L693.5 417L692.5 422L690.5 425L689.5 430L686.5 435L686.5 437L669.5 468L656.5 484L656.5 485L636 506.5L635 506.5L628 513.5L616 522.5L607 527.5L605 529.5L600 531.5L596.5 530L596.5 525L598.5 523L602.5 514L605.5 510L605.5 508L607.5 505L607.5 503L609.5 500L609.5 498L613.5 488L613.5 485L614.5 484L614.5 481L615.5 480L615.5 477L617.5 472L619.5 455L620.5 454L620 442.5L619 442.5L606 454.5L597 460.5L592 462.5L590 464.5L586 466.5L584 466.5L579 469.5L577 469.5L574 471.5L572 471.5L559 476.5L552 477.5L548 479.5L544 479.5L543 480.5L539 480.5L538 481.5L531 481.5L530 482.5L521 482.5L520 483.5L506 483.5L505 482.5L489 481.5L488 480.5L480 479.5L479 478.5L473.5 479L472.5 482L474.5 487L474.5 492L476.5 496L478.5 507L482.5 517L482.5 520L484.5 524L486.5 535L487.5 536L487.5 538L489.5 542L489.5 545L490.5 546L490.5 549L491.5 550L492.5 558L494.5 562L494.5 566L495.5 567L495.5 571L496.5 572L496.5 577L497.5 578L497.5 582L498.5 583L499.5 595L500.5 596L500.5 607L501.5 608L501.5 642L500.5 643L499.5 658L498.5 659L496.5 673L493.5 680L493.5 683L492.5 684L491.5 689L484.5 702L481 705.5L478.5 705L478.5 702L479.5 701L480.5 695L483.5 688L484.5 680L485.5 679L485.5 674L486.5 673L486.5 668L487.5 667L487.5 659L488.5 658L488.5 619L487.5 618L488.5 616L487.5 615L487.5 608L486.5 607L485.5 594L484.5 593L484.5 589L483.5 588L483.5 584L481.5 579L481.5 575L480.5 574L478.5 563L475.5 556L475.5 553L472.5 545L472.5 542L466.5 526L464.5 516L458.5 500L457.5 493L455.5 489L455.5 486L454.5 485L454.5 482L453.5 481L453.5 478L451.5 473L450.5 461L449.5 460L449.5 447L450.5 446L450.5 441L451.5 440L451.5 436L453.5 432L453.5 429L456.5 423L457.5 418L464.5 404L479.5 381L483.5 377L495.5 361L502.5 354L502.5 353L530 325.5L533.5 323L535.5 320L536.5 313L537.5 312L538.5 307L540.5 304L540.5 302L542.5 299L542.5 297L544.5 295L547.5 288L555.5 276L565.5 265L565.5 264L585 245.5L625 216.5L634.5 206L634.5 204L636.5 200L635.5 198L635.5 193L633.5 189L630 186.5L623 185.5L622 186.5L618 186.5L617 187.5L612 188.5L600 195.5L586.5 210L581.5 219L579 219.5L578.5 218L579.5 217L579.5 215L581.5 212L582.5 207L585.5 201L587.5 199L590.5 193L601 182.5L607 178.5L618 173.5L621 173.5L622 172.5L633.5 172L630.5 156L623.5 139L611.5 121L601 109.5L600 109.5L592 101.5L591 101.5L583 94.5L574 89.5L572 87.5L569 86.5L567 84.5L555 78.5L553 78.5L546 74.5L533 70.5L530 68.5L527 68.5L526 67.5L524 67.5L520 65.5L517 65.5L513 63.5L509 63.5L504 61.5L500 61.5L499 60.5L495 60.5L494 59.5L489 59.5L488 58.5L474 57.5L473 56.5L459 56.5L458 55.5L445 55.5L444 56.5L427 56.5L426 57.5L418 57.5L417 58.5L411 58.5L410 59.5L406 59.5L405 60.5L395 61.5L394 62.5L391 62.5L390 63.5L387 63.5L386 64.5L371 67.5L370 68.5L356 72.5L343 78.5L341 78.5L332 83.5L330 83.5L316 90.5L309 95.5L304 97.5L275 117.5L265 126.5L264 126.5L256 134.5L255 134.5L236.5 153L236.5 154L228.5 162L228.5 163L216.5 177L197.5 204L196.5 207L192.5 212L187.5 222L185.5 224L180.5 235L178.5 237L177.5 241L170.5 254L170.5 256L166.5 263L165.5 268L162.5 273L161.5 278L159.5 281L159.5 283L158.5 284L158.5 286L157.5 287L157.5 289L149.5 311L149.5 314L146.5 321L146.5 324L144.5 328L144.5 331L143.5 332L143.5 335L142.5 336L142.5 339L141.5 340L141.5 343L140.5 344L140.5 347L138.5 352L138.5 356L137.5 357L136.5 365L135.5 366L134.5 374L133.5 375L133.5 380L132.5 381L132.5 384L130.5 389L129.5 400L128.5 401L128.5 405L127.5 406L127.5 410L126.5 411L124.5 428L123.5 429L123.5 433L122.5 434L122.5 438L121.5 439L121.5 444L120.5 445L120.5 449L119.5 450L118.5 460L117.5 461L117.5 465L115.5 470L114.5 479L113.5 480L113.5 483L112.5 484L112.5 487L111.5 488L111.5 491L110.5 492L109.5 500L106.5 508L105.5 515L103.5 519L103.5 522L102.5 523L102.5 525L99.5 532L99.5 535L98.5 536L92.5 556L90.5 559L89.5 564L84.5 574L84.5 576L78.5 587L77.5 591L75.5 593L72.5 600L64.5 612L50 627.5L45 630.5L41 630.5L39.5 629L40.5 624L52.5 611L57.5 602L59.5 600L67.5 584L67.5 582L71.5 575L74.5 565L76.5 562L76.5 560L77.5 559L77.5 557L78.5 556L78.5 554L79.5 553L79.5 551L87.5 529L87.5 526L88.5 525L90.5 515L92.5 511L92.5 508L94.5 503L94.5 499L96.5 495L97.5 487L99.5 482L99.5 478L101.5 473L102.5 463L103.5 462L103.5 458L104.5 457L104.5 453L105.5 452L105.5 447L107.5 442L107.5 437L108.5 436L108.5 430L109.5 429L109.5 425L110.5 424L110.5 419L111.5 418L111.5 414L112.5 413L112.5 407L113.5 406L113.5 402L114.5 401L114.5 397L115.5 396L115.5 391L116.5 390L117.5 382L118.5 381L118.5 377L119.5 376L119.5 371L120.5 370L122.5 356L123.5 355L123.5 352L124.5 351L124.5 348L125.5 347L125.5 344L127.5 339L128.5 331L131.5 324L131.5 321L135.5 310L136.5 303L137.5 302L144.5 279L146.5 276L146.5 274L148.5 271L149.5 266L154.5 256L154.5 254L157.5 249L157.5 247L162.5 238L162.5 236L164.5 234L164.5 232L166.5 228L168.5 226L177.5 208L179.5 206L183.5 198L193.5 183L205.5 167L209.5 163L209.5 162L220.5 150L220.5 149L249 120.5L250 120.5L262 109.5L263 109.5L279 96.5L288 90.5L291 89.5L296 85.5L314 76.5L316 74.5L320 72.5L322 72.5L331 67.5L333 67.5L346 61.5L348 61.5L364 55.5L367 55.5L371 53.5L374 53.5L378 51.5L381 51.5L382 50.5L385 50.5L390 48.5L400 47.5L401 46.5L405 46.5L406 45.5L412 45.5L413 44.5L419 44.5L420 43.5L431 43.5ZM554.5 127L557 126.5L569.5 138L576.5 150L577.5 156L578.5 157L578.5 161L579.5 162L579.5 176L578.5 177L578.5 179L575.5 186L574.5 193L572.5 197L572.5 201L571.5 202L571.5 210L570.5 211L571.5 213L570 214.5L568.5 214L567.5 212L567.5 207L566.5 206L566.5 197L567.5 196L567.5 188L568.5 187L569.5 178L570.5 177L570.5 158L569.5 157L569.5 153L568.5 152L567.5 147L563.5 139L554.5 128ZM429.5 128L452 127.5L453 128.5L459 128.5L460 129.5L467 130.5L468 131.5L479 134.5L493 141.5L506 150.5L516.5 161L521.5 168L527.5 181L529.5 191L530.5 192L532.5 200L540.5 214L550.5 224L550.5 226L549 226.5L543 223.5L532.5 214L529.5 210L523.5 198L520.5 187L518.5 184L518.5 182L516.5 178L509.5 168L497 156.5L491 152.5L471 143.5L468 143.5L463 141.5L459 141.5L458 140.5L451 140.5L450 139.5L433 139.5L432 140.5L424 140.5L419 142.5L415 142.5L414 143.5L406 145.5L403 147.5L401 147.5L384 156.5L349 180.5L346 181.5L334 189.5L320 196.5L318 196.5L313 199.5L303 202.5L300 204.5L297 204.5L287 208.5L284 208.5L283 209.5L263 215.5L260 217.5L258 217.5L251 221.5L247 222.5L230 233.5L229.5 231L236 224.5L237 224.5L242 219.5L246 217.5L249 214.5L269 204.5L271 204.5L274 202.5L282 200.5L285 198.5L290 197.5L293 195.5L295 195.5L298 193.5L305 191.5L323 182.5L325 180.5L330 178.5L340 171.5L343 170.5L349 165.5L385 141.5L393 137.5L395 137.5L400 134.5L402 134.5L409 131.5L412 131.5L416 129.5L421 129.5L422 128.5L429 128.5ZM526.5 133L527 132.5L532 135.5L539.5 142L539.5 143L544.5 148L549.5 157L549.5 159L551.5 163L551.5 166L552.5 167L552.5 172L553.5 173L553.5 194L554.5 195L553.5 196L554.5 197L555.5 206L559.5 217L556.5 217L551.5 210L550.5 206L547.5 201L546.5 191L545.5 190L544.5 169L543.5 168L543.5 165L542.5 164L542.5 161L541.5 160L540.5 155L534.5 144L525.5 134L526 133.5ZM425.5 170L442 169.5L443 170.5L446 170.5L456 174.5L462 178.5L468.5 185L475.5 196L475.5 200L474 200.5L468.5 193L461 185.5L452 180.5L450 180.5L447 178.5L444 178.5L443 177.5L426 177.5L425 178.5L421 178.5L420 179.5L415 180.5L406 185.5L401 190.5L400 190.5L393.5 198L393.5 199L390 202.5L389 202.5L388.5 199L391.5 195L392.5 192L405 178.5L413 173.5L415 173.5L421 170.5L425 170.5ZM495.5 183L497 182.5L500.5 187L500.5 189L504.5 196L504.5 198L512.5 212L523 222.5L529 226.5L533 228.5L538 229.5L541.5 232L541 233.5L535 233.5L534 232.5L531 232.5L530 231.5L525 230.5L516 225.5L508.5 218L504.5 212L499.5 201L499.5 198L498.5 197L498.5 194L496.5 190L496.5 186L495.5 184ZM429.5 186L437 185.5L438 186.5L442 186.5L451 191.5L456.5 198L459.5 206L459.5 214L458.5 215L458.5 218L453.5 227L447 232.5L443 234.5L437 235.5L436 236.5L431 236.5L420 232.5L412.5 225L408.5 215L408.5 208L409.5 207L409.5 204L414.5 195L419 190.5L424 187.5L429 186.5ZM439.5 197L441 196.5L442 197.5L444 197.5L446.5 200L447.5 202L447.5 206L446.5 208L442 211.5L437 211.5L433.5 208L433.5 206L432.5 205L433.5 204L433.5 201L437 197.5L439 197.5ZM644.5 214L646 213.5L650.5 218L664.5 237L665.5 240L670.5 247L680.5 269L681.5 275L685.5 285L685.5 288L687.5 293L687.5 297L688.5 298L689.5 308L690.5 309L691.5 326L692.5 327L692.5 358L691.5 359L691.5 368L690.5 369L690.5 375L689.5 376L689.5 381L687.5 386L687.5 390L686.5 391L684.5 402L681.5 409L681.5 412L679.5 415L675.5 428L662.5 454L652.5 469L639.5 484L639.5 485L623 501.5L621.5 501L624.5 496L624.5 493L625.5 492L625.5 490L627.5 486L627.5 483L629.5 479L629.5 476L630.5 475L630.5 471L631.5 470L631.5 466L632.5 465L632.5 461L633.5 460L633.5 456L634.5 455L634.5 443L635.5 442L635.5 440L634.5 439L634.5 426L633.5 425L632.5 414L630.5 410L629.5 404L626.5 398L616 386.5L606 380.5L590 367.5L589 367.5L567.5 346L549.5 321L549.5 314L550.5 313L551.5 308L558.5 294L571.5 276L593 254.5L594 254.5L602 247.5L630 229.5L644.5 215ZM329.5 225L351 224.5L352 225.5L356 225.5L357 226.5L364 227.5L367 229.5L369 229.5L374 232.5L376 232.5L380 234.5L389 240.5L403 247.5L405 247.5L409 249.5L412 249.5L413 250.5L417 250.5L418 251.5L434 251.5L435 250.5L439 250.5L440 249.5L450 247.5L462 241.5L464 241.5L474 237.5L477 237.5L478 236.5L491 236.5L494.5 239L493 240.5L489 239.5L488 240.5L484 240.5L483 241.5L479 241.5L478 242.5L473 243.5L451 254.5L449 254.5L442 257.5L438 257.5L437 258.5L433 258.5L432 259.5L416 259.5L415 258.5L406 257.5L405 256.5L400 255.5L397 253.5L395 253.5L364 236.5L362 236.5L359 234.5L356 234.5L352 232.5L338 231.5L337 230.5L327 230.5L326 231.5L312 232.5L304 235.5L303.5 233L307 230.5L309 230.5L315 227.5L322 226.5L323 225.5L329 225.5ZM521.5 247L523 246.5L524 247.5L525 246.5L526 247.5L537 247.5L537 250.5L530 250.5L529 251.5L525 251.5L524 252.5L520 252.5L516 254.5L509 255.5L477 271.5L475 271.5L467 275.5L462 276.5L459 278.5L457 278.5L453 280.5L450 280.5L445 282.5L441 282.5L440 283.5L433 283.5L432 284.5L415 284.5L414 283.5L406 283.5L405 282.5L398 281.5L397 280.5L391 279.5L385 276.5L383 276.5L354 262.5L348 261.5L344 259.5L340 259.5L339 258.5L333 258.5L332 257.5L318 257.5L317 258.5L310 258.5L309 259.5L294 262.5L289 265.5L285 266.5L281 269.5L279.5 269L279.5 267L288 260.5L307 252.5L311 252.5L316 250.5L334 249.5L335 250.5L341 250.5L342 251.5L347 251.5L348 252.5L355 253.5L358 255.5L360 255.5L363 257.5L370 259.5L383 266.5L385 266.5L388 268.5L390 268.5L393 270.5L395 270.5L399 272.5L402 272.5L407 274.5L411 274.5L412 275.5L435 275.5L436 274.5L442 274.5L443 273.5L446 273.5L447 272.5L450 272.5L451 271.5L459 269.5L462 267.5L467 266.5L474 262.5L476 262.5L483 258.5L485 258.5L494 253.5L496 253.5L502 250.5L505 250.5L509 248.5L514 248.5L515 247.5L521 247.5ZM526.5 266L527 265.5L528.5 268L526 270.5L518 274.5L497 288.5L469 302.5L467 302.5L464 304.5L462 304.5L455 307.5L452 307.5L448 309.5L441 310.5L440 311.5L439 310.5L438 311.5L424 312.5L423 313.5L401 312.5L400 311.5L395 311.5L394 310.5L387 309.5L383 307.5L380 307.5L374 304.5L364 301.5L361 299.5L359 299.5L356 297.5L354 297.5L351 295.5L341 293.5L340 292.5L337 292.5L336 291.5L316 291.5L315 292.5L307 293.5L291 301.5L279.5 312L272.5 322L266.5 337L265.5 345L264.5 346L264.5 355L263.5 356L263.5 359L264.5 360L264.5 367L265.5 368L266.5 375L267.5 376L268.5 381L275.5 395L286.5 408L286.5 409L298 419.5L312 429.5L315 430.5L327 438.5L355 452.5L357 452.5L363 456.5L378 463.5L380 465.5L383 466.5L385 468.5L388 469.5L397 475.5L407 484.5L408 484.5L424.5 501L436.5 518L446.5 539L446.5 542L448.5 547L447 550.5L444.5 548L442.5 543L434.5 531L427.5 524L427.5 523L415 510.5L414 510.5L403 500.5L388 490.5L365 478.5L363 476.5L359 474.5L357 474.5L321 456.5L319 454.5L307 448.5L292 438.5L282 429.5L281 429.5L269.5 418L269.5 417L262.5 409L259.5 403L257.5 401L251.5 389L251.5 387L249.5 383L248.5 374L247.5 373L246.5 356L247.5 355L248.5 341L249.5 340L249.5 337L250.5 336L251.5 331L253.5 328L253.5 326L257.5 318L269.5 302L279 293.5L293 285.5L295 285.5L305 281.5L315 280.5L316 279.5L329 279.5L330 280.5L336 280.5L337 281.5L341 281.5L342 282.5L349 283.5L350 284.5L355 285.5L358 287.5L360 287.5L363 289.5L373 292.5L376 294.5L378 294.5L382 296.5L385 296.5L389 298.5L396 299.5L397 300.5L401 300.5L402 301.5L409 301.5L410 302.5L430 302.5L431 301.5L438 301.5L439 300.5L443 300.5L444 299.5L451 298.5L452 297.5L466 293.5L469 291.5L476 289.5L481 286.5L483 286.5L504 275.5L506 275.5L509 273.5L516 271.5L526 266.5ZM506.5 298L509 297.5L509.5 299L504 304.5L485 318.5L462 330.5L458 331.5L456 333.5L450 336.5L448 336.5L438 341.5L421 352.5L407.5 364L407.5 365L401.5 371L397 377.5L395.5 376L396.5 373L398.5 371L401.5 365L409.5 356L409.5 355L420 344.5L434 334.5L451 325.5L453 325.5L458 322.5L460 322.5L463 320.5L465 320.5L468 318.5L475 316.5L482 312.5L484 312.5L486 310.5L493 307.5L506 298.5ZM491.5 328L492 327.5L493.5 330L490 333.5L489 333.5L468 351.5L452 363.5L435.5 380L423.5 396L416 409.5L414.5 409L414.5 406L415.5 405L416.5 400L423.5 386L427.5 381L428.5 378L436.5 369L436.5 368L447 357.5L448 357.5L456 350.5L465 345.5L473 339.5L478 337.5L491 328.5ZM535.5 341L539 341.5L546.5 349L555.5 362L563.5 377L563.5 379L567.5 386L567.5 388L570.5 393L570.5 395L572.5 398L572.5 400L578.5 413L586 420.5L595 425.5L601 426.5L602 427.5L606 427.5L607 428.5L612 428.5L613.5 431L610.5 436L600 445.5L579 457.5L577 457.5L574 459.5L569 460.5L563 463.5L560 463.5L559 464.5L556 464.5L551 466.5L547 466.5L546 467.5L541 467.5L540 468.5L532 468.5L531 469.5L508 469.5L507 468.5L497 468.5L496 467.5L492 467.5L491 466.5L488 466.5L487 465.5L482 464.5L478 462.5L471.5 456L468.5 448L468.5 435L469.5 434L469.5 431L470.5 430L472.5 422L475.5 417L475.5 415L479.5 407L481.5 405L486.5 395L496.5 380L508.5 366L508.5 365L527 345.5L531 342.5L535 341.5ZM575.5 378L577 377.5L590 388.5L602 396.5L606 400.5L607 400.5L612.5 407L616.5 417L616 419.5L605 418.5L594 414.5L587.5 408L582.5 397L582.5 395L580.5 392L580.5 390L576 378.5Z"></path></g>
<text x="246" y="168" font-family="&#39;Cormorant Garamond&#39;,serif" font-weight="600" font-size="104" letter-spacing="-1" fill="#1a3d2e">Kya &amp; Co.</text>
<text x="249" y="210" font-family="&#39;Cormorant Garamond&#39;,serif" font-style="italic" font-weight="500" font-size="30" letter-spacing="0.5" fill="#8a8270">by The Kya Project</text>
</svg>